<svg xmlns="http://www.w3.org/2000/svg" xmlns:xlink="http://www.w3.org/1999/xlink" width="500" zoomAndPan="magnify" viewBox="0 0 375 374.999991" height="500" preserveAspectRatio="xMidYMid meet" version="1.0"><defs><clipPath id="7191034bae"><path d="M 87 289 L 135 289 L 135 331.4375 L 87 331.4375 Z M 87 289 " clip-rule="nonzero"/></clipPath></defs><path fill="#ffbf00" d="M 238.09375 312.285156 C 238.351562 321.21875 245.675781 328.289062 254.554688 328.289062 C 254.714844 328.289062 254.878906 328.285156 255.039062 328.28125 C 264.132812 328.019531 271.296875 320.429688 271.035156 311.335938 L 269.804688 268.675781 L 236.835938 268.675781 Z M 238.09375 312.285156 " fill-opacity="1" fill-rule="nonzero"/><g clip-path="url(#7191034bae)"><path fill="#ffbf00" d="M 111.359375 290.429688 C 107.667969 289.738281 103.53125 289.296875 99.023438 289.105469 L 89.410156 307.914062 C 85.347656 315.855469 88.496094 325.582031 96.4375 329.640625 C 98.789062 330.84375 101.300781 331.414062 103.773438 331.414062 C 109.644531 331.414062 115.304688 328.199219 118.164062 322.613281 L 134.238281 291.167969 C 131.0625 291.277344 127.996094 291.347656 125.136719 291.347656 C 119.160156 291.347656 114.65625 291.050781 111.359375 290.429688 Z M 111.359375 290.429688 " fill-opacity="1" fill-rule="nonzero"/></g><path fill="#ffbf00" d="M 170.238281 192.136719 L 158.289062 169.332031 L 156.769531 175.074219 C 156.34375 176.039062 156.015625 177.050781 155.777344 178.082031 L 149.757812 189.859375 C 150.917969 189.761719 152.113281 189.703125 153.371094 189.703125 C 158.460938 189.703125 164.015625 190.511719 170.238281 192.136719 Z M 170.238281 192.136719 " fill-opacity="1" fill-rule="nonzero"/><path fill="#ffbf00" d="M 347.5625 268.675781 L 347.5625 264.722656 L 367.042969 264.722656 C 371.390625 264.722656 374.953125 261.164062 374.953125 256.8125 L 374.953125 249.988281 C 374.953125 245.636719 371.390625 242.078125 367.042969 242.078125 L 331.140625 242.078125 C 329.320312 243.796875 327.265625 245.320312 324.988281 246.601562 C 312.75 253.476562 297.824219 251.230469 288.105469 242.078125 L 278.246094 242.078125 C 278.125 241 277.949219 239.664062 277.703125 238.125 C 277.535156 237.078125 277.328125 235.933594 277.089844 234.738281 C 275.011719 224.359375 270.027344 209.375 258.402344 206.980469 C 253.5 205.96875 249.460938 206.40625 245.195312 207.234375 L 244.378906 210.09375 C 242.726562 215.898438 237.359375 219.953125 231.328125 219.953125 C 230.070312 219.953125 228.816406 219.777344 227.601562 219.433594 C 222.855469 218.078125 219.429688 214.339844 218.226562 209.886719 C 214.734375 209.601562 210.851562 209.0625 206.46875 208.167969 C 205.902344 212.386719 203.378906 216.277344 199.332031 218.402344 C 197.390625 219.417969 195.214844 219.953125 193.039062 219.953125 L 193.035156 219.953125 C 191.433594 219.953125 189.890625 219.648438 188.4375 219.125 C 188.367188 220.710938 188.210938 222.351562 188.054688 224.027344 C 187.457031 230.351562 186.835938 236.890625 190.539062 242.46875 C 197.722656 253.292969 195.175781 275.574219 190.929688 281.503906 C 190.332031 282.339844 189.882812 282.582031 189.722656 282.546875 C 182.707031 280.695312 167.355469 281.539062 151.105469 282.433594 C 136.09375 283.257812 120.574219 284.113281 112.816406 282.65625 C 98.320312 279.941406 79.613281 280.667969 54.050781 284.949219 C 51.703125 271.082031 56.171875 225.0625 57.191406 215.054688 C 64.457031 215.628906 90.621094 217.253906 114.53125 213.125 C 121.496094 211.917969 126.441406 208.667969 131.226562 205.523438 C 140.371094 199.507812 149.007812 193.824219 172.097656 200.875 C 172.144531 200.890625 172.191406 200.902344 172.242188 200.914062 C 173.308594 201.152344 174.308594 201.410156 175.242188 201.6875 L 172.761719 196.949219 C 148.269531 189.59375 138.5 196.007812 129.050781 202.21875 C 124.402344 205.277344 120.011719 208.164062 113.855469 209.226562 C 86.4375 213.96875 55.925781 210.980469 55.621094 210.949219 C 54.546875 210.832031 53.574219 211.625 53.457031 212.707031 C 53.425781 213.007812 53.308594 214.121094 53.132812 215.855469 L 35.761719 215.855469 C 28.480469 215.855469 22.578125 221.757812 22.578125 229.035156 C 22.578125 232.5625 23.972656 235.757812 26.230469 238.125 C 28.234375 240.226562 30.925781 241.660156 33.949219 242.078125 L 7.910156 242.078125 C 3.558594 242.078125 0 245.636719 0 249.988281 L 0 256.8125 C 0 261.164062 3.558594 264.722656 7.910156 264.722656 L 27.390625 264.722656 L 27.390625 328.339844 L 39.375 328.339844 L 39.375 264.722656 L 49.589844 264.722656 C 49.273438 274.832031 49.449219 283.585938 50.617188 287.75 C 50.859375 288.613281 51.648438 289.191406 52.519531 289.191406 C 52.632812 289.191406 52.746094 289.183594 52.855469 289.164062 C 78.546875 284.746094 97.917969 283.890625 112.089844 286.546875 C 120.3125 288.085938 136.078125 287.222656 151.324219 286.382812 C 166.554688 285.546875 182.300781 284.675781 188.710938 286.367188 C 189.847656 286.667969 192.050781 286.730469 194.144531 283.808594 C 196.804688 280.09375 198.625 272.710938 198.964844 264.722656 L 335.574219 264.722656 L 335.574219 328.339844 L 347.5625 328.339844 Z M 347.5625 268.675781 " fill-opacity="1" fill-rule="nonzero"/><path fill="#ffbf00" d="M 330.636719 200.25 C 331.261719 200.9375 331.847656 201.65625 332.398438 202.402344 C 332.953125 203.148438 333.464844 203.917969 333.941406 204.714844 C 334.417969 205.511719 334.855469 206.332031 335.25 207.171875 C 335.644531 208.011719 336 208.867188 336.3125 209.742188 C 336.625 210.617188 336.890625 211.503906 337.117188 212.402344 C 337.339844 213.304688 337.519531 214.214844 337.65625 215.132812 C 337.792969 216.050781 337.882812 216.972656 337.925781 217.898438 C 337.96875 218.828125 337.96875 219.753906 337.921875 220.679688 C 337.875 221.609375 337.785156 222.53125 337.648438 223.449219 C 337.507812 224.367188 337.328125 225.273438 337.101562 226.175781 C 336.875 227.074219 336.605469 227.960938 336.289062 228.835938 C 335.976562 229.710938 335.621094 230.566406 335.222656 231.402344 C 334.824219 232.242188 334.386719 233.058594 333.910156 233.855469 C 333.433594 234.652344 332.917969 235.421875 332.363281 236.164062 C 331.808594 236.910156 331.21875 237.625 330.59375 238.3125 C 329.972656 239 329.316406 239.65625 328.628906 240.277344 C 327.9375 240.902344 327.222656 241.488281 326.476562 242.039062 C 325.730469 242.59375 324.957031 243.105469 324.160156 243.582031 C 323.363281 244.058594 322.546875 244.496094 321.707031 244.890625 C 320.867188 245.285156 320.011719 245.640625 319.136719 245.953125 C 318.261719 246.265625 317.375 246.53125 316.472656 246.757812 C 315.574219 246.980469 314.664062 247.160156 313.746094 247.296875 C 312.828125 247.429688 311.90625 247.519531 310.976562 247.566406 C 310.050781 247.609375 309.125 247.609375 308.195312 247.5625 C 307.269531 247.515625 306.347656 247.425781 305.429688 247.285156 C 304.511719 247.148438 303.601562 246.96875 302.703125 246.742188 C 301.800781 246.515625 300.914062 246.246094 300.042969 245.929688 C 299.167969 245.617188 298.3125 245.261719 297.472656 244.863281 C 296.636719 244.464844 295.816406 244.027344 295.023438 243.550781 C 294.226562 243.070312 293.457031 242.554688 292.710938 242.003906 C 291.96875 241.449219 291.25 240.859375 290.5625 240.234375 C 289.878906 239.613281 289.222656 238.957031 288.601562 238.265625 C 287.976562 237.578125 287.390625 236.859375 286.839844 236.113281 C 286.285156 235.367188 285.773438 234.597656 285.296875 233.800781 C 284.820312 233.003906 284.382812 232.1875 283.988281 231.347656 C 283.589844 230.507812 283.238281 229.652344 282.925781 228.777344 C 282.613281 227.902344 282.347656 227.015625 282.121094 226.113281 C 281.898438 225.214844 281.71875 224.304688 281.582031 223.386719 C 281.445312 222.46875 281.355469 221.546875 281.3125 220.617188 C 281.269531 219.691406 281.269531 218.765625 281.316406 217.835938 C 281.363281 216.910156 281.453125 215.988281 281.589844 215.070312 C 281.726562 214.152344 281.910156 213.242188 282.136719 212.34375 C 282.363281 211.441406 282.632812 210.554688 282.945312 209.683594 C 283.261719 208.808594 283.617188 207.953125 284.015625 207.113281 C 284.410156 206.273438 284.847656 205.457031 285.328125 204.664062 C 285.804688 203.867188 286.320312 203.097656 286.875 202.351562 C 287.429688 201.605469 288.019531 200.890625 288.640625 200.203125 C 289.265625 199.515625 289.921875 198.863281 290.609375 198.238281 C 291.300781 197.617188 292.015625 197.03125 292.761719 196.476562 C 293.507812 195.925781 294.28125 195.410156 295.078125 194.933594 C 295.875 194.460938 296.691406 194.023438 297.53125 193.628906 C 298.371094 193.230469 299.226562 192.878906 300.101562 192.566406 C 300.976562 192.253906 301.863281 191.984375 302.761719 191.761719 C 303.664062 191.535156 304.574219 191.355469 305.492188 191.222656 C 306.410156 191.085938 307.332031 190.996094 308.257812 190.953125 C 309.1875 190.90625 310.113281 190.910156 311.039062 190.957031 C 311.96875 191 312.890625 191.09375 313.808594 191.230469 C 314.726562 191.367188 315.636719 191.550781 316.535156 191.777344 C 317.433594 192.003906 318.320312 192.273438 319.195312 192.585938 C 320.070312 192.902344 320.925781 193.257812 321.765625 193.652344 C 322.601562 194.050781 323.417969 194.488281 324.214844 194.96875 C 325.011719 195.445312 325.78125 195.960938 326.527344 196.515625 C 327.269531 197.070312 327.988281 197.65625 328.671875 198.28125 C 329.359375 198.90625 330.015625 199.5625 330.636719 200.25 Z M 330.636719 200.25 " fill-opacity="1" fill-rule="nonzero"/><path fill="#ffbf00" d="M 149.859375 144.53125 C 149.921875 146.089844 150.332031 147.617188 151.054688 149 L 183.6875 211.269531 C 185.574219 214.867188 189.242188 216.921875 193.039062 216.921875 C 194.6875 216.921875 196.363281 216.535156 197.925781 215.714844 C 203.082031 213.011719 205.070312 206.640625 202.367188 201.480469 L 170.960938 141.546875 C 171.121094 137.082031 172.0625 126.515625 177.054688 117.339844 L 179.855469 118.546875 C 175.296875 126.769531 174.253906 136.398438 174.023438 140.863281 L 205.054688 200.074219 C 205.734375 201.367188 206.171875 202.726562 206.40625 204.09375 C 210.425781 204.945312 214.207031 205.53125 217.769531 205.855469 C 217.8125 204.792969 217.960938 203.722656 218.265625 202.65625 L 233.628906 148.722656 C 234.304688 142.628906 234.046875 133.851562 231.742188 126.84375 L 234.703125 126.164062 C 237.359375 134.488281 237.1875 144.363281 236.613281 149.3125 L 221.179688 203.488281 C 219.585938 209.085938 222.835938 214.921875 228.433594 216.515625 C 229.398438 216.792969 230.371094 216.921875 231.328125 216.921875 C 235.917969 216.921875 240.144531 213.898438 241.464844 209.265625 L 257.117188 154.320312 C 257.25 153.851562 257.347656 153.375 257.417969 152.894531 C 257.757812 150.46875 259.511719 135.941406 255.347656 121.433594 C 253.199219 113.941406 249.457031 106.464844 243.136719 100.652344 C 237.726562 104.585938 231.089844 106.898438 223.949219 106.898438 C 222.722656 106.898438 221.480469 106.828125 220.253906 106.691406 C 208.15625 105.328125 198.339844 97.488281 193.855469 87.023438 L 187.863281 85.667969 C 187.015625 85.359375 186.128906 85.15625 185.222656 85.070312 L 184.925781 85.003906 C 184.890625 85.015625 184.859375 85.035156 184.828125 85.046875 C 182.980469 84.949219 181.082031 85.320312 179.324219 86.25 C 168.765625 91.851562 161.972656 100.265625 157.613281 108.972656 C 149.257812 125.652344 149.8125 143.410156 149.859375 144.53125 Z M 149.859375 144.53125 " fill-opacity="1" fill-rule="nonzero"/><path fill="#ffbf00" d="M 225.070312 44.582031 C 226.039062 44.621094 227.007812 44.707031 227.96875 44.839844 C 228.929688 44.972656 229.882812 45.152344 230.828125 45.378906 C 231.773438 45.605469 232.703125 45.875 233.621094 46.195312 C 234.539062 46.511719 235.441406 46.875 236.324219 47.28125 C 237.203125 47.6875 238.066406 48.136719 238.902344 48.625 C 239.742188 49.117188 240.554688 49.648438 241.339844 50.21875 C 242.125 50.789062 242.882812 51.398438 243.609375 52.042969 C 244.335938 52.6875 245.027344 53.367188 245.6875 54.078125 C 246.347656 54.792969 246.96875 55.535156 247.554688 56.308594 C 248.140625 57.085938 248.691406 57.886719 249.199219 58.714844 C 249.707031 59.542969 250.171875 60.390625 250.59375 61.265625 C 251.019531 62.140625 251.398438 63.03125 251.738281 63.941406 C 252.074219 64.855469 252.363281 65.78125 252.609375 66.71875 C 252.855469 67.660156 253.054688 68.609375 253.207031 69.566406 C 253.359375 70.527344 253.464844 71.492188 253.519531 72.460938 C 253.578125 73.429688 253.589844 74.402344 253.550781 75.371094 C 253.511719 76.34375 253.429688 77.308594 253.296875 78.269531 C 253.164062 79.234375 252.984375 80.1875 252.757812 81.132812 C 252.53125 82.074219 252.257812 83.007812 251.941406 83.925781 C 251.621094 84.84375 251.261719 85.742188 250.855469 86.625 C 250.449219 87.507812 250 88.367188 249.507812 89.207031 C 249.015625 90.042969 248.488281 90.855469 247.914062 91.640625 C 247.34375 92.425781 246.738281 93.183594 246.09375 93.910156 C 245.449219 94.636719 244.769531 95.328125 244.054688 95.988281 C 243.34375 96.648438 242.597656 97.273438 241.824219 97.859375 C 241.050781 98.445312 240.25 98.992188 239.421875 99.5 C 238.59375 100.007812 237.742188 100.472656 236.867188 100.898438 C 235.996094 101.320312 235.101562 101.703125 234.191406 102.039062 C 233.28125 102.375 232.355469 102.667969 231.414062 102.910156 C 230.476562 103.15625 229.527344 103.355469 228.566406 103.507812 C 227.605469 103.660156 226.644531 103.765625 225.671875 103.824219 C 224.703125 103.882812 223.734375 103.890625 222.761719 103.851562 C 221.792969 103.816406 220.824219 103.730469 219.863281 103.597656 C 218.902344 103.464844 217.949219 103.285156 217.003906 103.058594 C 216.058594 102.832031 215.128906 102.558594 214.210938 102.242188 C 213.292969 101.925781 212.390625 101.5625 211.511719 101.15625 C 210.628906 100.75 209.765625 100.300781 208.929688 99.808594 C 208.089844 99.320312 207.277344 98.789062 206.492188 98.21875 C 205.707031 97.648438 204.949219 97.039062 204.222656 96.394531 C 203.5 95.75 202.804688 95.070312 202.144531 94.359375 C 201.484375 93.644531 200.863281 92.902344 200.277344 92.125 C 199.691406 91.351562 199.144531 90.550781 198.636719 89.722656 C 198.128906 88.894531 197.660156 88.042969 197.238281 87.171875 C 196.8125 86.296875 196.433594 85.40625 196.097656 84.492188 C 195.757812 83.582031 195.46875 82.65625 195.222656 81.71875 C 194.976562 80.777344 194.777344 79.828125 194.625 78.867188 C 194.472656 77.910156 194.367188 76.945312 194.3125 75.976562 C 194.253906 75.003906 194.242188 74.035156 194.28125 73.066406 C 194.320312 72.09375 194.40625 71.128906 194.539062 70.164062 C 194.667969 69.203125 194.847656 68.25 195.074219 67.304688 C 195.300781 66.359375 195.574219 65.429688 195.890625 64.511719 C 196.210938 63.59375 196.574219 62.695312 196.980469 61.8125 C 197.386719 60.929688 197.832031 60.070312 198.324219 59.230469 C 198.816406 58.394531 199.347656 57.582031 199.917969 56.796875 C 200.488281 56.007812 201.09375 55.253906 201.738281 54.527344 C 202.386719 53.800781 203.0625 53.105469 203.777344 52.449219 C 204.488281 51.789062 205.234375 51.164062 206.007812 50.578125 C 206.78125 49.992188 207.582031 49.445312 208.410156 48.9375 C 209.238281 48.429688 210.089844 47.964844 210.964844 47.539062 C 211.835938 47.113281 212.730469 46.734375 213.640625 46.398438 C 214.550781 46.0625 215.476562 45.769531 216.417969 45.523438 C 217.355469 45.277344 218.308594 45.082031 219.265625 44.929688 C 220.226562 44.777344 221.191406 44.671875 222.160156 44.613281 C 223.128906 44.554688 224.097656 44.546875 225.070312 44.582031 Z M 225.070312 44.582031 " fill-opacity="1" fill-rule="nonzero"/></svg>