<svg xmlns="http://www.w3.org/2000/svg" xmlns:xlink="http://www.w3.org/1999/xlink" width="500" zoomAndPan="magnify" viewBox="0 0 375 374.999991" height="500" preserveAspectRatio="xMidYMid meet" version="1.0"><defs><g/><clipPath id="3e050105b7"><path d="M 223 241 L 299.894531 241 L 299.894531 303 L 223 303 Z M 223 241 " clip-rule="nonzero"/></clipPath><clipPath id="b6ff4eda22"><path d="M 75.328125 241 L 152 241 L 152 303 L 75.328125 303 Z M 75.328125 241 " clip-rule="nonzero"/></clipPath><clipPath id="8e91826557"><path d="M 112 69.582031 L 236 69.582031 L 236 174 L 112 174 Z M 112 69.582031 " clip-rule="nonzero"/></clipPath><clipPath id="03f3785af1"><path d="M 119.390625 97.121094 L 141.476562 97.121094 L 141.476562 118.136719 L 119.390625 118.136719 Z M 119.390625 97.121094 " clip-rule="nonzero"/></clipPath><clipPath id="bbbb09b5c3"><path d="M 130.417969 97.121094 L 133.019531 105.148438 L 141.445312 105.148438 L 134.628906 110.109375 L 137.230469 118.136719 L 130.417969 113.175781 L 123.601562 118.136719 L 126.207031 110.109375 L 119.390625 105.148438 L 127.816406 105.148438 Z M 130.417969 97.121094 " clip-rule="nonzero"/></clipPath><clipPath id="e4edbfd3c2"><path d="M 141.445312 97.121094 L 163.53125 97.121094 L 163.53125 118.136719 L 141.445312 118.136719 Z M 141.445312 97.121094 " clip-rule="nonzero"/></clipPath><clipPath id="979429a88e"><path d="M 152.46875 97.121094 L 155.074219 105.148438 L 163.496094 105.148438 L 156.679688 110.109375 L 159.285156 118.136719 L 152.46875 113.175781 L 145.65625 118.136719 L 148.257812 110.109375 L 141.445312 105.148438 L 149.867188 105.148438 Z M 152.46875 97.121094 " clip-rule="nonzero"/></clipPath><clipPath id="24def4b126"><path d="M 163.496094 97.121094 L 185.582031 97.121094 L 185.582031 118.136719 L 163.496094 118.136719 Z M 163.496094 97.121094 " clip-rule="nonzero"/></clipPath><clipPath id="b7c0ee377d"><path d="M 174.523438 97.121094 L 177.125 105.148438 L 185.546875 105.148438 L 178.734375 110.109375 L 181.335938 118.136719 L 174.523438 113.175781 L 167.707031 118.136719 L 170.308594 110.109375 L 163.496094 105.148438 L 171.917969 105.148438 Z M 174.523438 97.121094 " clip-rule="nonzero"/></clipPath><clipPath id="871241576d"><path d="M 185.546875 97.121094 L 207.632812 97.121094 L 207.632812 118.136719 L 185.546875 118.136719 Z M 185.546875 97.121094 " clip-rule="nonzero"/></clipPath><clipPath id="0fb3505ff9"><path d="M 196.574219 97.121094 L 199.175781 105.148438 L 207.597656 105.148438 L 200.785156 110.109375 L 203.386719 118.136719 L 196.574219 113.175781 L 189.757812 118.136719 L 192.363281 110.109375 L 185.546875 105.148438 L 193.96875 105.148438 Z M 196.574219 97.121094 " clip-rule="nonzero"/></clipPath><clipPath id="8704c8d75f"><path d="M 207.597656 97.121094 L 229.683594 97.121094 L 229.683594 118.136719 L 207.597656 118.136719 Z M 207.597656 97.121094 " clip-rule="nonzero"/></clipPath><clipPath id="58bb8757c1"><path d="M 218.625 97.121094 L 221.226562 105.148438 L 229.652344 105.148438 L 222.835938 110.109375 L 225.441406 118.136719 L 218.625 113.175781 L 211.8125 118.136719 L 214.414062 110.109375 L 207.597656 105.148438 L 216.023438 105.148438 Z M 218.625 97.121094 " clip-rule="nonzero"/></clipPath></defs><rect x="-37.5" width="450" fill="#ffffff" y="-37.499999" height="449.999989" fill-opacity="1"/><rect x="-37.5" width="450" fill="#545454" y="-37.499999" height="449.999989" fill-opacity="1"/><g clip-path="url(#3e050105b7)"><path fill="#ffffff" d="M 294.621094 269.878906 C 292.65625 260.128906 286.605469 251.691406 277.972656 246.757812 C 273.660156 244.292969 269.074219 242.40625 264.332031 241.132812 C 260.25 244.679688 254.96875 246.835938 249.152344 246.835938 C 243.332031 246.835938 238.054688 244.679688 234.007812 241.132812 C 230.5 242.058594 227.109375 243.328125 223.875 244.910156 C 232.15625 250.726562 237.976562 259.550781 239.980469 269.570312 L 245.296875 296.351562 C 240.558594 298.164062 235.78125 299.742188 230.925781 301.089844 C 253.851562 304.136719 277.359375 301.515625 299.246094 293.078125 Z M 294.621094 269.878906 " fill-opacity="1" fill-rule="nonzero"/></g><g clip-path="url(#b6ff4eda22)"><path fill="#ffffff" d="M 129.695312 296.351562 L 135.054688 269.609375 C 137.058594 259.589844 142.875 250.765625 151.160156 244.949219 C 147.886719 243.367188 144.492188 242.097656 141.027344 241.171875 C 136.941406 244.679688 131.664062 246.835938 125.84375 246.835938 C 120.023438 246.835938 114.746094 244.679688 110.699219 241.132812 C 105.960938 242.40625 101.375 244.292969 97.058594 246.757812 C 88.425781 251.691406 82.339844 260.128906 80.414062 269.878906 L 75.75 293.078125 C 94.324219 300.207031 114.015625 303.25 133.550781 302.171875 C 137.09375 301.976562 140.679688 301.632812 144.1875 301.167969 C 139.332031 299.78125 134.476562 298.203125 129.695312 296.351562 Z M 129.695312 296.351562 " fill-opacity="1" fill-rule="nonzero"/></g><path fill="#ffffff" d="M 232.96875 269.878906 C 231.003906 260.128906 224.953125 251.691406 216.320312 246.757812 C 212.003906 244.292969 207.417969 242.40625 202.679688 241.132812 C 198.59375 244.679688 193.316406 246.835938 187.496094 246.835938 C 181.679688 246.835938 176.398438 244.679688 172.355469 241.132812 C 167.613281 242.40625 163.027344 244.292969 158.710938 246.757812 C 150.082031 251.691406 143.992188 260.128906 142.066406 269.878906 L 137.402344 293.078125 C 169.65625 305.484375 205.339844 305.484375 237.589844 293.078125 Z M 232.96875 269.878906 " fill-opacity="1" fill-rule="nonzero"/><path fill="#ffffff" d="M 210.617188 216.007812 C 210.617188 216.765625 210.582031 217.523438 210.507812 218.277344 C 210.433594 219.027344 210.320312 219.777344 210.171875 220.519531 C 210.027344 221.261719 209.84375 221.996094 209.621094 222.71875 C 209.402344 223.445312 209.148438 224.15625 208.859375 224.855469 C 208.566406 225.554688 208.246094 226.238281 207.886719 226.90625 C 207.53125 227.574219 207.140625 228.222656 206.722656 228.855469 C 206.300781 229.484375 205.851562 230.089844 205.371094 230.675781 C 204.890625 231.261719 204.382812 231.820312 203.847656 232.359375 C 203.308594 232.894531 202.75 233.402344 202.164062 233.882812 C 201.578125 234.363281 200.972656 234.8125 200.34375 235.234375 C 199.710938 235.652344 199.0625 236.042969 198.394531 236.398438 C 197.726562 236.757812 197.042969 237.078125 196.34375 237.371094 C 195.644531 237.660156 194.933594 237.914062 194.207031 238.132812 C 193.484375 238.355469 192.75 238.539062 192.007812 238.683594 C 191.265625 238.832031 190.515625 238.945312 189.765625 239.019531 C 189.011719 239.09375 188.253906 239.128906 187.496094 239.128906 C 186.742188 239.128906 185.984375 239.09375 185.230469 239.019531 C 184.476562 238.945312 183.730469 238.832031 182.988281 238.683594 C 182.246094 238.539062 181.511719 238.355469 180.785156 238.132812 C 180.0625 237.914062 179.347656 237.660156 178.648438 237.371094 C 177.949219 237.078125 177.265625 236.757812 176.597656 236.398438 C 175.929688 236.042969 175.28125 235.652344 174.652344 235.234375 C 174.023438 234.8125 173.414062 234.363281 172.832031 233.882812 C 172.246094 233.402344 171.683594 232.894531 171.148438 232.359375 C 170.613281 231.820312 170.105469 231.261719 169.625 230.675781 C 169.144531 230.089844 168.695312 229.484375 168.273438 228.855469 C 167.851562 228.222656 167.464844 227.574219 167.105469 226.90625 C 166.75 226.238281 166.425781 225.554688 166.136719 224.855469 C 165.847656 224.15625 165.59375 223.445312 165.371094 222.71875 C 165.152344 221.996094 164.96875 221.261719 164.820312 220.519531 C 164.675781 219.777344 164.5625 219.027344 164.488281 218.277344 C 164.414062 217.523438 164.378906 216.765625 164.378906 216.007812 C 164.378906 215.253906 164.414062 214.496094 164.488281 213.742188 C 164.5625 212.988281 164.675781 212.242188 164.820312 211.5 C 164.96875 210.757812 165.152344 210.023438 165.371094 209.296875 C 165.59375 208.574219 165.847656 207.859375 166.136719 207.160156 C 166.425781 206.460938 166.75 205.777344 167.105469 205.109375 C 167.464844 204.441406 167.851562 203.792969 168.273438 203.164062 C 168.695312 202.535156 169.144531 201.925781 169.625 201.34375 C 170.105469 200.757812 170.613281 200.195312 171.148438 199.660156 C 171.683594 199.125 172.246094 198.617188 172.832031 198.136719 C 173.414062 197.65625 174.023438 197.207031 174.652344 196.785156 C 175.28125 196.363281 175.929688 195.976562 176.597656 195.617188 C 177.265625 195.261719 177.949219 194.9375 178.648438 194.648438 C 179.347656 194.359375 180.0625 194.105469 180.785156 193.882812 C 181.511719 193.664062 182.246094 193.480469 182.988281 193.332031 C 183.730469 193.1875 184.476562 193.074219 185.230469 193 C 185.984375 192.925781 186.742188 192.890625 187.496094 192.890625 C 188.253906 192.890625 189.011719 192.925781 189.765625 193 C 190.515625 193.074219 191.265625 193.1875 192.007812 193.332031 C 192.75 193.480469 193.484375 193.664062 194.207031 193.882812 C 194.933594 194.105469 195.644531 194.359375 196.34375 194.648438 C 197.042969 194.9375 197.726562 195.261719 198.394531 195.617188 C 199.0625 195.976562 199.710938 196.363281 200.34375 196.785156 C 200.972656 197.207031 201.578125 197.65625 202.164062 198.136719 C 202.75 198.617188 203.308594 199.125 203.847656 199.660156 C 204.382812 200.195312 204.890625 200.757812 205.371094 201.34375 C 205.851562 201.925781 206.300781 202.535156 206.722656 203.164062 C 207.140625 203.792969 207.53125 204.441406 207.886719 205.109375 C 208.246094 205.777344 208.566406 206.460938 208.859375 207.160156 C 209.148438 207.859375 209.402344 208.574219 209.621094 209.296875 C 209.84375 210.023438 210.027344 210.757812 210.171875 211.5 C 210.320312 212.242188 210.433594 212.988281 210.507812 213.742188 C 210.582031 214.496094 210.617188 215.253906 210.617188 216.007812 Z M 210.617188 216.007812 " fill-opacity="1" fill-rule="nonzero"/><path fill="#ffffff" d="M 148.964844 216.007812 C 148.964844 216.765625 148.925781 217.523438 148.851562 218.277344 C 148.777344 219.027344 148.667969 219.777344 148.519531 220.519531 C 148.371094 221.261719 148.1875 221.996094 147.96875 222.71875 C 147.75 223.445312 147.492188 224.15625 147.203125 224.855469 C 146.914062 225.554688 146.589844 226.238281 146.234375 226.90625 C 145.875 227.574219 145.488281 228.222656 145.066406 228.855469 C 144.648438 229.484375 144.195312 230.089844 143.714844 230.675781 C 143.234375 231.261719 142.726562 231.820312 142.191406 232.359375 C 141.65625 232.894531 141.097656 233.402344 140.511719 233.882812 C 139.925781 234.363281 139.316406 234.8125 138.6875 235.234375 C 138.058594 235.652344 137.410156 236.042969 136.742188 236.398438 C 136.074219 236.757812 135.390625 237.078125 134.691406 237.371094 C 133.992188 237.660156 133.28125 237.914062 132.554688 238.132812 C 131.832031 238.355469 131.097656 238.539062 130.355469 238.683594 C 129.613281 238.832031 128.863281 238.945312 128.109375 239.019531 C 127.355469 239.09375 126.601562 239.128906 125.84375 239.128906 C 125.085938 239.128906 124.332031 239.09375 123.578125 239.019531 C 122.824219 238.945312 122.074219 238.832031 121.332031 238.683594 C 120.589844 238.539062 119.855469 238.355469 119.132812 238.132812 C 118.40625 237.914062 117.695312 237.660156 116.996094 237.371094 C 116.296875 237.078125 115.613281 236.757812 114.945312 236.398438 C 114.277344 236.042969 113.628906 235.652344 113 235.234375 C 112.371094 234.8125 111.761719 234.363281 111.175781 233.882812 C 110.589844 233.402344 110.03125 232.894531 109.496094 232.359375 C 108.960938 231.820312 108.453125 231.261719 107.972656 230.675781 C 107.492188 230.089844 107.039062 229.484375 106.621094 228.855469 C 106.199219 228.222656 105.808594 227.574219 105.453125 226.90625 C 105.097656 226.238281 104.773438 225.554688 104.484375 224.855469 C 104.195312 224.15625 103.9375 223.445312 103.71875 222.71875 C 103.5 221.996094 103.316406 221.261719 103.167969 220.519531 C 103.019531 219.777344 102.910156 219.027344 102.835938 218.277344 C 102.761719 217.523438 102.722656 216.765625 102.722656 216.007812 C 102.722656 215.253906 102.761719 214.496094 102.835938 213.742188 C 102.910156 212.988281 103.019531 212.242188 103.167969 211.5 C 103.316406 210.757812 103.5 210.023438 103.71875 209.296875 C 103.9375 208.574219 104.195312 207.859375 104.484375 207.160156 C 104.773438 206.460938 105.097656 205.777344 105.453125 205.109375 C 105.808594 204.441406 106.199219 203.792969 106.621094 203.164062 C 107.039062 202.535156 107.492188 201.925781 107.972656 201.34375 C 108.453125 200.757812 108.960938 200.195312 109.496094 199.660156 C 110.03125 199.125 110.589844 198.617188 111.175781 198.136719 C 111.761719 197.65625 112.371094 197.207031 113 196.785156 C 113.628906 196.363281 114.277344 195.976562 114.945312 195.617188 C 115.613281 195.261719 116.296875 194.9375 116.996094 194.648438 C 117.695312 194.359375 118.40625 194.105469 119.132812 193.882812 C 119.855469 193.664062 120.589844 193.480469 121.332031 193.332031 C 122.074219 193.1875 122.824219 193.074219 123.578125 193 C 124.332031 192.925781 125.085938 192.890625 125.84375 192.890625 C 126.601562 192.890625 127.355469 192.925781 128.109375 193 C 128.863281 193.074219 129.613281 193.1875 130.355469 193.332031 C 131.097656 193.480469 131.832031 193.664062 132.554688 193.882812 C 133.28125 194.105469 133.992188 194.359375 134.691406 194.648438 C 135.390625 194.9375 136.074219 195.261719 136.742188 195.617188 C 137.410156 195.976562 138.058594 196.363281 138.6875 196.785156 C 139.316406 197.207031 139.925781 197.65625 140.511719 198.136719 C 141.097656 198.617188 141.65625 199.125 142.191406 199.660156 C 142.726562 200.195312 143.234375 200.757812 143.714844 201.34375 C 144.195312 201.925781 144.648438 202.535156 145.066406 203.164062 C 145.488281 203.792969 145.875 204.441406 146.234375 205.109375 C 146.589844 205.777344 146.914062 206.460938 147.203125 207.160156 C 147.492188 207.859375 147.75 208.574219 147.96875 209.296875 C 148.1875 210.023438 148.371094 210.757812 148.519531 211.5 C 148.667969 212.242188 148.777344 212.988281 148.851562 213.742188 C 148.925781 214.496094 148.964844 215.253906 148.964844 216.007812 Z M 148.964844 216.007812 " fill-opacity="1" fill-rule="nonzero"/><path fill="#ffffff" d="M 272.273438 216.007812 C 272.273438 216.765625 272.234375 217.523438 272.160156 218.277344 C 272.085938 219.027344 271.976562 219.777344 271.828125 220.519531 C 271.679688 221.261719 271.496094 221.996094 271.277344 222.71875 C 271.054688 223.445312 270.800781 224.15625 270.511719 224.855469 C 270.222656 225.554688 269.898438 226.238281 269.542969 226.90625 C 269.183594 227.574219 268.796875 228.222656 268.375 228.855469 C 267.953125 229.484375 267.503906 230.089844 267.023438 230.675781 C 266.542969 231.261719 266.035156 231.820312 265.5 232.359375 C 264.964844 232.894531 264.402344 233.402344 263.820312 233.882812 C 263.234375 234.363281 262.625 234.8125 261.996094 235.234375 C 261.367188 235.652344 260.71875 236.042969 260.050781 236.398438 C 259.382812 236.757812 258.699219 237.078125 258 237.371094 C 257.300781 237.660156 256.585938 237.914062 255.863281 238.132812 C 255.136719 238.355469 254.40625 238.539062 253.660156 238.683594 C 252.917969 238.832031 252.171875 238.945312 251.417969 239.019531 C 250.664062 239.09375 249.910156 239.128906 249.152344 239.128906 C 248.394531 239.128906 247.640625 239.09375 246.886719 239.019531 C 246.132812 238.945312 245.382812 238.832031 244.640625 238.683594 C 243.898438 238.539062 243.164062 238.355469 242.441406 238.132812 C 241.714844 237.914062 241.003906 237.660156 240.304688 237.371094 C 239.605469 237.078125 238.921875 236.757812 238.253906 236.398438 C 237.585938 236.042969 236.9375 235.652344 236.304688 235.234375 C 235.675781 234.8125 235.070312 234.363281 234.484375 233.882812 C 233.898438 233.402344 233.339844 232.894531 232.804688 232.359375 C 232.265625 231.820312 231.757812 231.261719 231.277344 230.675781 C 230.800781 230.089844 230.347656 229.484375 229.925781 228.855469 C 229.507812 228.222656 229.117188 227.574219 228.761719 226.90625 C 228.402344 226.238281 228.082031 225.554688 227.792969 224.855469 C 227.5 224.15625 227.246094 223.445312 227.027344 222.71875 C 226.808594 221.996094 226.625 221.261719 226.476562 220.519531 C 226.328125 219.777344 226.214844 219.027344 226.140625 218.277344 C 226.066406 217.523438 226.03125 216.765625 226.03125 216.007812 C 226.03125 215.253906 226.066406 214.496094 226.140625 213.742188 C 226.214844 212.988281 226.328125 212.242188 226.476562 211.5 C 226.625 210.757812 226.808594 210.023438 227.027344 209.296875 C 227.246094 208.574219 227.5 207.859375 227.792969 207.160156 C 228.082031 206.460938 228.402344 205.777344 228.761719 205.109375 C 229.117188 204.441406 229.507812 203.792969 229.925781 203.164062 C 230.347656 202.535156 230.800781 201.925781 231.277344 201.34375 C 231.757812 200.757812 232.265625 200.195312 232.804688 199.660156 C 233.339844 199.125 233.898438 198.617188 234.484375 198.136719 C 235.070312 197.65625 235.675781 197.207031 236.304688 196.785156 C 236.9375 196.363281 237.585938 195.976562 238.253906 195.617188 C 238.921875 195.261719 239.605469 194.9375 240.304688 194.648438 C 241.003906 194.359375 241.714844 194.105469 242.441406 193.882812 C 243.164062 193.664062 243.898438 193.480469 244.640625 193.332031 C 245.382812 193.1875 246.132812 193.074219 246.886719 193 C 247.640625 192.925781 248.394531 192.890625 249.152344 192.890625 C 249.910156 192.890625 250.664062 192.925781 251.417969 193 C 252.171875 193.074219 252.917969 193.1875 253.660156 193.332031 C 254.40625 193.480469 255.136719 193.664062 255.863281 193.882812 C 256.585938 194.105469 257.300781 194.359375 258 194.648438 C 258.699219 194.9375 259.382812 195.261719 260.050781 195.617188 C 260.71875 195.976562 261.367188 196.363281 261.996094 196.785156 C 262.625 197.207031 263.234375 197.65625 263.820312 198.136719 C 264.402344 198.617188 264.964844 199.125 265.5 199.660156 C 266.035156 200.195312 266.542969 200.757812 267.023438 201.34375 C 267.503906 201.925781 267.953125 202.535156 268.375 203.164062 C 268.796875 203.792969 269.183594 204.441406 269.542969 205.109375 C 269.898438 205.777344 270.222656 206.460938 270.511719 207.160156 C 270.800781 207.859375 271.054688 208.574219 271.277344 209.296875 C 271.496094 210.023438 271.679688 210.757812 271.828125 211.5 C 271.976562 212.242188 272.085938 212.988281 272.160156 213.742188 C 272.234375 214.496094 272.273438 215.253906 272.273438 216.007812 Z M 272.273438 216.007812 " fill-opacity="1" fill-rule="nonzero"/><path fill="#ffffff" d="M 279.976562 123.527344 C 279.976562 102.488281 258.628906 84.457031 230.269531 81.566406 C 230.152344 81.566406 230.039062 81.566406 229.921875 81.566406 C 233.160156 84.339844 235.894531 87.421875 238.054688 90.699219 C 258.050781 95.398438 272.273438 108.539062 272.273438 123.527344 C 272.273438 138.09375 258.863281 151.195312 238.941406 156.167969 C 237.089844 156.628906 235.855469 158.363281 236.011719 160.25 L 236.898438 169.921875 L 219.632812 158.671875 C 219.054688 158.324219 218.441406 158.09375 217.785156 158.054688 C 213.546875 157.785156 209.421875 157.128906 205.492188 156.167969 C 201.601562 157.746094 197.4375 159.019531 193.046875 159.980469 C 193.277344 160.136719 193.46875 160.328125 193.738281 160.445312 C 200.714844 163.332031 208.304688 165.066406 216.28125 165.683594 L 239.324219 180.710938 C 239.980469 181.136719 240.710938 181.328125 241.445312 181.328125 C 242.136719 181.328125 242.832031 181.136719 243.449219 180.789062 C 244.71875 180.019531 245.414062 178.632812 245.296875 177.128906 L 243.988281 162.753906 C 265.644531 156.320312 279.976562 140.867188 279.976562 123.527344 Z M 279.976562 123.527344 " fill-opacity="1" fill-rule="nonzero"/><g clip-path="url(#8e91826557)"><path fill="#ffffff" d="M 235.855469 111.96875 C 235.855469 88.539062 208.265625 69.582031 174.203125 69.582031 C 140.140625 69.582031 112.550781 88.539062 112.550781 111.96875 C 112.550781 132.007812 132.816406 148.769531 160.0625 153.199219 L 154.9375 173.621094 L 179.25 154.164062 C 210.925781 152.429688 235.855469 134.203125 235.855469 111.96875 Z M 235.855469 111.96875 " fill-opacity="1" fill-rule="nonzero"/></g><g clip-path="url(#03f3785af1)"><g clip-path="url(#bbbb09b5c3)"><path fill="#000000" d="M 119.390625 97.121094 L 141.476562 97.121094 L 141.476562 118.136719 L 119.390625 118.136719 Z M 119.390625 97.121094 " fill-opacity="1" fill-rule="nonzero"/></g></g><g clip-path="url(#e4edbfd3c2)"><g clip-path="url(#979429a88e)"><path fill="#000000" d="M 141.445312 97.121094 L 163.53125 97.121094 L 163.53125 118.136719 L 141.445312 118.136719 Z M 141.445312 97.121094 " fill-opacity="1" fill-rule="nonzero"/></g></g><g clip-path="url(#24def4b126)"><g clip-path="url(#b7c0ee377d)"><path fill="#000000" d="M 163.496094 97.121094 L 185.582031 97.121094 L 185.582031 118.136719 L 163.496094 118.136719 Z M 163.496094 97.121094 " fill-opacity="1" fill-rule="nonzero"/></g></g><g clip-path="url(#871241576d)"><g clip-path="url(#0fb3505ff9)"><path fill="#000000" d="M 185.546875 97.121094 L 207.632812 97.121094 L 207.632812 118.136719 L 185.546875 118.136719 Z M 185.546875 97.121094 " fill-opacity="1" fill-rule="nonzero"/></g></g><g clip-path="url(#8704c8d75f)"><g clip-path="url(#58bb8757c1)"><path fill="#000000" d="M 207.597656 97.121094 L 229.683594 97.121094 L 229.683594 118.136719 L 207.597656 118.136719 Z M 207.597656 97.121094 " fill-opacity="1" fill-rule="nonzero"/></g></g><g fill="#000000" fill-opacity="1"><g transform="translate(135.061069, 135.796267)"><g><path d="M 4.296875 -14.265625 L 4.296875 0 L 1.03125 0 L 1.03125 -14.265625 Z M 4.296875 -14.265625 "/></g></g></g><g fill="#000000" fill-opacity="1"><g transform="translate(140.386242, 135.796267)"><g/></g></g><g fill="#000000" fill-opacity="1"><g transform="translate(145.106288, 135.796267)"><g><path d="M 4.296875 -14.265625 L 4.296875 -2.859375 L 9.203125 -2.859375 L 9.203125 0 L 1.03125 0 L 1.03125 -14.265625 Z M 4.296875 -14.265625 "/></g></g></g><g fill="#000000" fill-opacity="1"><g transform="translate(154.874872, 135.796267)"><g><path d="M 0.390625 -7.140625 C 0.390625 -9.203125 1.09375 -10.945312 2.5 -12.375 C 3.914062 -13.8125 5.613281 -14.53125 7.59375 -14.53125 C 9.582031 -14.53125 11.273438 -13.816406 12.671875 -12.390625 C 14.066406 -10.960938 14.765625 -9.210938 14.765625 -7.140625 C 14.765625 -5.054688 14.078125 -3.300781 12.703125 -1.875 C 11.335938 -0.445312 9.632812 0.265625 7.59375 0.265625 C 5.507812 0.265625 3.785156 -0.441406 2.421875 -1.859375 C 1.066406 -3.273438 0.390625 -5.035156 0.390625 -7.140625 Z M 3.90625 -7.140625 C 3.90625 -6.390625 4.019531 -5.707031 4.25 -5.09375 C 4.476562 -4.476562 4.878906 -3.957031 5.453125 -3.53125 C 6.035156 -3.101562 6.75 -2.890625 7.59375 -2.890625 C 8.800781 -2.890625 9.710938 -3.300781 10.328125 -4.125 C 10.953125 -4.957031 11.265625 -5.960938 11.265625 -7.140625 C 11.265625 -8.304688 10.945312 -9.304688 10.3125 -10.140625 C 9.6875 -10.984375 8.78125 -11.40625 7.59375 -11.40625 C 6.414062 -11.40625 5.503906 -10.984375 4.859375 -10.140625 C 4.222656 -9.304688 3.90625 -8.304688 3.90625 -7.140625 Z M 3.90625 -7.140625 "/></g></g></g><g fill="#000000" fill-opacity="1"><g transform="translate(170.037788, 135.796267)"><g><path d="M 5.5 0 L -0.484375 -14.265625 L 3.1875 -14.265625 L 6.78125 -4.890625 L 10.375 -14.265625 L 14.046875 -14.265625 L 8.0625 0 Z M 5.5 0 "/></g></g></g><g fill="#000000" fill-opacity="1"><g transform="translate(183.592784, 135.796267)"><g><path d="M 9.203125 -14.265625 L 9.203125 -11.421875 L 4.296875 -11.421875 L 4.296875 -8.578125 L 9 -8.578125 L 9 -5.71875 L 4.296875 -5.71875 L 4.296875 -2.859375 L 9.203125 -2.859375 L 9.203125 0 L 1.03125 0 L 1.03125 -14.265625 Z M 9.203125 -14.265625 "/></g></g></g><g fill="#000000" fill-opacity="1"><g transform="translate(193.620714, 135.796267)"><g/></g></g><g fill="#000000" fill-opacity="1"><g transform="translate(198.34076, 135.796267)"><g><path d="M 4.296875 -14.265625 L 4.296875 0 L 1.03125 0 L 1.03125 -14.265625 Z M 4.296875 -14.265625 "/></g></g></g><g fill="#000000" fill-opacity="1"><g transform="translate(203.665933, 135.796267)"><g><path d="M 0.140625 -11.421875 L 0.140625 -14.265625 L 10.171875 -14.265625 L 10.171875 -11.421875 L 6.78125 -11.421875 L 6.78125 0 L 3.53125 0 L 3.53125 -11.421875 Z M 0.140625 -11.421875 "/></g></g></g></svg>