<svg xmlns="http://www.w3.org/2000/svg" xmlns:xlink="http://www.w3.org/1999/xlink" width="500" zoomAndPan="magnify" viewBox="0 0 375 374.999991" height="500" preserveAspectRatio="xMidYMid meet" version="1.0"><defs><clipPath id="3a51b73a16"><path d="M 67 95.738281 L 308 95.738281 L 308 279.488281 L 67 279.488281 Z M 67 95.738281 " clip-rule="nonzero"/></clipPath></defs><rect x="-37.5" width="450" fill="#ffffff" y="-37.499999" height="449.999989" fill-opacity="1"/><rect x="-37.5" width="450" fill="#545454" y="-37.499999" height="449.999989" fill-opacity="1"/><path fill="#ffffff" d="M 243.074219 193.285156 C 228.890625 193.285156 217.3125 181.707031 217.3125 167.523438 C 217.3125 153.339844 228.890625 141.761719 243.074219 141.761719 C 257.257812 141.761719 268.835938 153.339844 268.835938 167.523438 C 268.835938 181.707031 257.257812 193.285156 243.074219 193.285156 Z M 243.074219 147.550781 C 232.074219 147.550781 223.101562 156.523438 223.101562 167.523438 C 223.101562 178.519531 232.074219 187.496094 243.074219 187.496094 C 254.074219 187.496094 263.046875 178.519531 263.046875 167.523438 C 263.046875 156.523438 254.074219 147.550781 243.074219 147.550781 Z M 243.074219 147.550781 " fill-opacity="1" fill-rule="nonzero"/><path fill="#ffffff" d="M 290.253906 230.042969 L 270.859375 195.308594 C 272.886719 194.730469 274.914062 193.863281 276.359375 191.835938 C 278.097656 189.230469 278.097656 186.046875 277.808594 183.152344 C 277.808594 181.417969 277.519531 179.96875 277.808594 178.8125 C 278.097656 177.941406 279.253906 176.496094 280.125 175.335938 C 281.859375 173.023438 284.175781 170.707031 284.175781 167.234375 C 284.175781 163.757812 282.148438 161.445312 280.125 159.128906 C 279.253906 157.96875 278.097656 156.8125 277.808594 155.65625 C 277.519531 154.496094 277.519531 153.050781 277.808594 151.3125 C 278.097656 148.417969 278.097656 145.234375 276.359375 142.628906 C 274.335938 140.023438 271.441406 139.15625 268.546875 138.578125 C 267.097656 138.285156 265.363281 137.707031 264.492188 137.128906 C 263.625 136.550781 262.757812 135.101562 261.886719 133.65625 C 260.441406 131.339844 258.703125 128.445312 255.519531 127.578125 C 252.625 126.707031 249.730469 127.867188 247.125 128.734375 C 245.679688 129.3125 243.941406 129.894531 242.785156 129.894531 C 241.625 129.894531 240.179688 129.3125 238.441406 128.734375 C 235.835938 127.578125 232.941406 126.417969 230.046875 127.578125 C 226.863281 128.445312 225.128906 131.339844 223.679688 133.65625 C 222.8125 135.101562 221.941406 136.261719 221.074219 137.128906 C 220.207031 137.707031 218.46875 138.285156 217.023438 138.578125 C 214.128906 139.15625 211.234375 140.023438 209.207031 142.628906 C 207.46875 145.234375 207.46875 148.417969 207.757812 151.3125 C 207.757812 153.050781 208.050781 154.496094 207.757812 155.65625 C 207.46875 156.523438 206.3125 157.96875 205.445312 159.128906 C 203.707031 161.445312 201.390625 163.757812 201.390625 167.234375 C 201.390625 170.417969 203.417969 173.023438 205.445312 175.335938 C 206.3125 176.496094 207.46875 177.652344 207.757812 178.8125 C 208.050781 179.96875 208.050781 181.417969 207.757812 183.152344 C 207.46875 186.046875 207.46875 189.230469 209.207031 191.835938 C 210.945312 194.152344 213.546875 195.019531 216.152344 195.597656 L 197.050781 230.042969 C 196.472656 230.914062 196.472656 232.070312 197.050781 232.9375 C 197.628906 233.808594 198.496094 234.386719 199.65625 234.386719 L 212.101562 233.519531 L 217.890625 244.519531 C 218.46875 245.386719 219.335938 245.964844 220.496094 245.964844 C 221.652344 245.964844 222.523438 245.386719 223.101562 244.519531 L 243.941406 207.757812 L 264.203125 244.226562 C 264.78125 245.097656 265.652344 245.675781 266.808594 245.675781 C 267.964844 245.675781 268.835938 245.097656 269.414062 244.226562 L 275.203125 233.230469 L 287.648438 234.097656 C 288.808594 234.097656 289.675781 233.519531 290.253906 232.648438 C 290.832031 232.070312 290.832031 230.914062 290.253906 230.042969 Z M 213.839844 183.441406 C 213.839844 181.417969 214.128906 179.101562 213.546875 177.074219 C 212.96875 175.046875 211.523438 173.3125 210.074219 171.863281 C 208.917969 170.417969 207.46875 168.679688 207.46875 167.523438 C 207.46875 166.363281 208.917969 164.628906 210.074219 163.179688 C 211.523438 161.445312 212.96875 159.996094 213.546875 157.96875 C 214.128906 155.945312 214.128906 153.628906 213.839844 151.601562 C 213.839844 149.574219 213.546875 147.550781 214.128906 146.679688 C 214.707031 145.8125 216.734375 145.234375 218.46875 144.945312 C 220.496094 144.367188 222.8125 143.785156 224.546875 142.628906 C 226.285156 141.472656 227.441406 139.445312 228.601562 137.707031 C 229.757812 135.972656 230.625 134.234375 231.785156 133.945312 C 232.074219 133.945312 232.074219 133.945312 232.363281 133.945312 C 233.519531 133.945312 234.96875 134.523438 236.414062 135.101562 C 238.441406 135.972656 240.46875 136.839844 242.785156 136.839844 C 245.097656 136.839844 247.125 135.972656 249.152344 135.101562 C 250.886719 134.523438 252.625 133.65625 253.78125 133.945312 C 254.941406 134.234375 255.808594 135.972656 256.96875 137.707031 C 258.125 139.445312 259.28125 141.472656 261.019531 142.628906 C 262.757812 143.785156 265.070312 144.367188 267.097656 144.945312 C 269.125 145.523438 270.859375 145.8125 271.441406 146.679688 C 272.019531 147.550781 272.019531 149.574219 271.730469 151.601562 C 271.730469 153.628906 271.441406 155.945312 272.019531 157.96875 C 272.597656 159.996094 274.046875 161.734375 275.492188 163.179688 C 276.648438 164.628906 278.097656 166.363281 278.097656 167.523438 C 278.097656 168.679688 276.648438 170.417969 275.492188 171.863281 C 274.046875 173.601562 272.597656 175.046875 272.019531 177.074219 C 271.441406 179.101562 271.441406 181.417969 271.730469 183.441406 C 271.730469 185.46875 272.019531 187.496094 271.441406 188.363281 C 270.859375 189.230469 268.835938 189.808594 267.097656 190.101562 C 265.070312 190.679688 262.757812 191.257812 261.019531 192.414062 C 259.28125 193.574219 258.125 195.597656 256.96875 197.335938 C 255.808594 199.074219 254.941406 200.808594 253.78125 201.097656 C 252.914062 201.386719 250.886719 200.519531 249.152344 199.941406 C 247.703125 199.363281 245.96875 198.785156 244.519531 198.492188 C 243.941406 198.492188 243.363281 198.203125 242.785156 198.203125 C 240.46875 198.203125 238.441406 199.074219 236.414062 199.941406 C 234.679688 200.519531 232.941406 201.386719 231.785156 201.097656 C 230.625 200.808594 229.757812 199.074219 228.601562 197.335938 C 227.441406 195.597656 226.285156 193.574219 224.546875 192.414062 C 222.8125 191.257812 220.496094 190.679688 218.46875 190.101562 C 216.441406 189.519531 214.707031 189.230469 214.128906 188.363281 C 213.546875 187.496094 213.839844 185.46875 213.839844 183.441406 Z M 221.074219 236.992188 L 216.734375 229.175781 C 216.152344 228.308594 214.996094 227.730469 214.128906 227.730469 L 205.15625 228.019531 L 221.941406 197.625 C 222.523438 198.203125 223.390625 199.363281 223.96875 200.519531 C 225.417969 202.835938 227.152344 205.730469 230.335938 206.597656 C 231.207031 206.886719 231.785156 206.886719 232.652344 206.886719 C 234.679688 206.886719 236.996094 206.019531 238.730469 205.152344 Z M 273.753906 227.441406 C 272.597656 227.441406 271.441406 228.019531 271.152344 228.886719 L 266.808594 236.703125 L 250.019531 206.308594 C 251.757812 206.886719 253.78125 207.175781 255.808594 206.597656 C 258.992188 205.730469 260.730469 202.835938 262.175781 200.519531 C 263.046875 199.074219 263.914062 197.914062 264.78125 197.046875 C 265.070312 196.757812 265.363281 196.757812 265.652344 196.757812 L 283.019531 228.019531 Z M 273.753906 227.441406 " fill-opacity="1" fill-rule="nonzero"/><g clip-path="url(#3a51b73a16)"><path fill="#ffffff" d="M 295.175781 279.253906 L 79.820312 279.253906 C 72.871094 279.253906 67.371094 273.753906 67.371094 266.804688 L 67.371094 108.183594 C 67.371094 101.238281 72.871094 95.738281 79.820312 95.738281 L 295.175781 95.738281 C 302.121094 95.738281 307.621094 101.238281 307.621094 108.183594 L 307.621094 266.804688 C 307.621094 273.464844 301.832031 279.253906 295.175781 279.253906 Z M 79.820312 101.527344 C 76.058594 101.527344 73.164062 104.421875 73.164062 108.183594 L 73.164062 266.804688 C 73.164062 270.570312 76.058594 273.464844 79.820312 273.464844 L 295.175781 273.464844 C 298.9375 273.464844 301.832031 270.570312 301.832031 266.804688 L 301.832031 108.183594 C 301.832031 104.421875 298.9375 101.527344 295.175781 101.527344 Z M 79.820312 101.527344 " fill-opacity="1" fill-rule="nonzero"/></g><path fill="#ffffff" d="M 285.042969 267.09375 L 90.820312 267.09375 C 84.742188 267.09375 79.820312 262.175781 79.820312 256.097656 L 79.820312 118.894531 C 79.820312 112.816406 84.742188 107.894531 90.820312 107.894531 L 285.042969 107.894531 C 291.125 107.894531 296.042969 112.816406 296.042969 118.894531 L 296.042969 256.097656 C 296.042969 262.175781 291.125 267.09375 285.042969 267.09375 Z M 90.820312 110.789062 C 86.476562 110.789062 82.714844 114.550781 82.714844 118.894531 L 82.714844 256.097656 C 82.714844 260.4375 86.476562 264.199219 90.820312 264.199219 L 285.042969 264.199219 C 289.386719 264.199219 293.148438 260.4375 293.148438 256.097656 L 293.148438 118.894531 C 293.148438 114.550781 289.386719 110.789062 285.042969 110.789062 Z M 90.820312 110.789062 " fill-opacity="1" fill-rule="nonzero"/><path fill="#ffffff" d="M 194.734375 138.867188 L 100.949219 138.867188 C 99.214844 138.867188 98.054688 137.707031 98.054688 135.972656 C 98.054688 134.234375 99.214844 133.078125 100.949219 133.078125 L 194.445312 133.078125 C 196.179688 133.078125 197.339844 134.234375 197.339844 135.972656 C 197.339844 137.707031 196.179688 138.867188 194.734375 138.867188 Z M 194.734375 138.867188 " fill-opacity="1" fill-rule="nonzero"/><path fill="#ffffff" d="M 184.023438 211.230469 L 100.949219 211.230469 C 99.214844 211.230469 98.054688 210.070312 98.054688 208.335938 C 98.054688 206.597656 99.214844 205.441406 100.949219 205.441406 L 184.023438 205.441406 C 185.761719 205.441406 186.917969 206.597656 186.917969 208.335938 C 186.917969 210.070312 185.761719 211.230469 184.023438 211.230469 Z M 184.023438 211.230469 " fill-opacity="1" fill-rule="nonzero"/><path fill="#ffffff" d="M 184.023438 177.941406 L 100.949219 177.941406 C 99.214844 177.941406 98.054688 176.785156 98.054688 175.046875 C 98.054688 173.3125 99.214844 172.152344 100.949219 172.152344 L 184.023438 172.152344 C 185.761719 172.152344 186.917969 173.3125 186.917969 175.046875 C 186.917969 176.785156 185.761719 177.941406 184.023438 177.941406 Z M 184.023438 177.941406 " fill-opacity="1" fill-rule="nonzero"/><path fill="#ffffff" d="M 144.949219 233.230469 L 100.949219 233.230469 C 99.214844 233.230469 98.054688 232.070312 98.054688 230.335938 C 98.054688 228.597656 99.214844 227.441406 100.949219 227.441406 L 144.949219 227.441406 C 146.683594 227.441406 147.84375 228.597656 147.84375 230.335938 C 147.84375 232.070312 146.683594 233.230469 144.949219 233.230469 Z M 144.949219 233.230469 " fill-opacity="1" fill-rule="nonzero"/></svg>