<svg xmlns="http://www.w3.org/2000/svg" xmlns:xlink="http://www.w3.org/1999/xlink" width="500" zoomAndPan="magnify" viewBox="0 0 375 374.999991" height="500" preserveAspectRatio="xMidYMid meet" version="1.0"><defs><clipPath id="1140b3d95a"><path d="M 115 260 L 150 260 L 150 290.941406 L 115 290.941406 Z M 115 260 " clip-rule="nonzero"/></clipPath><clipPath id="cbf11e185e"><path d="M 52.714844 191 L 321.964844 191 L 321.964844 289 L 52.714844 289 Z M 52.714844 191 " clip-rule="nonzero"/></clipPath></defs><rect x="-37.5" width="450" fill="#ffffff" y="-37.499999" height="449.999989" fill-opacity="1"/><rect x="-37.5" width="450" fill="#545454" y="-37.499999" height="449.999989" fill-opacity="1"/><path fill="#ffffff" d="M 223.867188 277.203125 C 224.054688 283.625 229.316406 288.707031 235.699219 288.707031 C 235.816406 288.707031 235.933594 288.703125 236.050781 288.703125 C 242.585938 288.511719 247.734375 283.058594 247.546875 276.519531 L 246.664062 245.855469 L 222.964844 245.855469 Z M 223.867188 277.203125 " fill-opacity="1" fill-rule="nonzero"/><g clip-path="url(#1140b3d95a)"><path fill="#ffffff" d="M 132.765625 261.492188 C 130.113281 260.996094 127.136719 260.679688 123.898438 260.542969 L 116.988281 274.0625 C 114.066406 279.769531 116.332031 286.761719 122.039062 289.679688 C 123.730469 290.542969 125.535156 290.953125 127.3125 290.953125 C 131.53125 290.953125 135.601562 288.644531 137.65625 284.628906 L 149.210938 262.023438 C 146.929688 262.101562 144.726562 262.152344 142.667969 262.152344 C 138.375 262.152344 135.136719 261.9375 132.765625 261.492188 Z M 132.765625 261.492188 " fill-opacity="1" fill-rule="nonzero"/></g><path fill="#ffffff" d="M 175.089844 190.835938 L 166.5 174.441406 L 165.410156 178.570312 C 165.101562 179.265625 164.867188 179.992188 164.695312 180.734375 L 160.371094 189.195312 C 161.203125 189.128906 162.0625 189.085938 162.964844 189.085938 C 166.625 189.085938 170.617188 189.667969 175.089844 190.835938 Z M 175.089844 190.835938 " fill-opacity="1" fill-rule="nonzero"/><g clip-path="url(#cbf11e185e)"><path fill="#ffffff" d="M 302.558594 245.855469 L 302.558594 243.011719 L 316.5625 243.011719 C 319.6875 243.011719 322.246094 240.453125 322.246094 237.328125 L 322.246094 232.421875 C 322.246094 229.292969 319.6875 226.734375 316.5625 226.734375 L 290.753906 226.734375 C 289.445312 227.96875 287.96875 229.066406 286.332031 229.988281 C 277.535156 234.929688 266.804688 233.3125 259.816406 226.734375 L 252.730469 226.734375 C 252.644531 225.960938 252.519531 225 252.339844 223.894531 C 252.21875 223.140625 252.070312 222.316406 251.898438 221.457031 C 250.40625 213.996094 246.824219 203.226562 238.464844 201.503906 C 234.941406 200.777344 232.039062 201.09375 228.972656 201.6875 L 228.386719 203.742188 C 227.199219 207.917969 223.339844 210.832031 219.003906 210.832031 C 218.101562 210.832031 217.199219 210.707031 216.328125 210.457031 C 212.914062 209.484375 210.449219 206.792969 209.585938 203.59375 C 207.074219 203.390625 204.285156 203 201.136719 202.359375 C 200.726562 205.390625 198.914062 208.191406 196.003906 209.714844 C 194.609375 210.445312 193.046875 210.832031 191.480469 210.832031 L 191.476562 210.832031 C 190.328125 210.832031 189.21875 210.609375 188.171875 210.234375 C 188.121094 211.375 188.011719 212.554688 187.898438 213.761719 C 187.464844 218.304688 187.023438 223.003906 189.683594 227.015625 C 194.847656 234.796875 193.015625 250.8125 189.964844 255.078125 C 189.535156 255.675781 189.210938 255.851562 189.09375 255.824219 C 184.054688 254.496094 173.019531 255.101562 161.335938 255.746094 C 150.546875 256.335938 139.390625 256.953125 133.8125 255.90625 C 123.390625 253.953125 109.945312 254.476562 91.566406 257.550781 C 89.882812 247.582031 93.09375 214.503906 93.828125 207.308594 C 99.050781 207.722656 117.855469 208.890625 135.046875 205.921875 C 140.050781 205.054688 143.605469 202.71875 147.046875 200.457031 C 153.621094 196.132812 159.828125 192.050781 176.425781 197.117188 C 176.460938 197.128906 176.496094 197.136719 176.53125 197.144531 C 177.296875 197.316406 178.015625 197.503906 178.6875 197.699219 L 176.902344 194.292969 C 159.296875 189.007812 152.273438 193.617188 145.484375 198.082031 C 142.140625 200.28125 138.984375 202.355469 134.5625 203.121094 C 114.851562 206.527344 92.917969 204.382812 92.699219 204.359375 C 91.925781 204.273438 91.226562 204.84375 91.144531 205.621094 C 91.121094 205.835938 91.035156 206.636719 90.910156 207.886719 L 78.421875 207.886719 C 73.1875 207.886719 68.945312 212.128906 68.945312 217.359375 C 68.945312 219.894531 69.949219 222.191406 71.570312 223.894531 C 73.011719 225.40625 74.945312 226.4375 77.117188 226.734375 L 58.402344 226.734375 C 55.273438 226.734375 52.714844 229.292969 52.714844 232.421875 L 52.714844 237.328125 C 52.714844 240.453125 55.273438 243.011719 58.402344 243.011719 L 72.402344 243.011719 L 72.402344 288.742188 L 81.019531 288.742188 L 81.019531 243.011719 L 88.363281 243.011719 C 88.136719 250.28125 88.261719 256.570312 89.101562 259.566406 C 89.277344 260.1875 89.84375 260.601562 90.46875 260.601562 C 90.550781 260.601562 90.628906 260.597656 90.710938 260.582031 C 109.179688 257.40625 123.105469 256.789062 133.289062 258.699219 C 139.203125 259.808594 150.535156 259.1875 161.492188 258.582031 C 172.441406 257.980469 183.761719 257.355469 188.371094 258.574219 C 189.183594 258.789062 190.769531 258.832031 192.277344 256.730469 C 194.1875 254.0625 195.496094 248.753906 195.742188 243.011719 L 293.941406 243.011719 L 293.941406 288.742188 L 302.558594 288.742188 Z M 302.558594 245.855469 " fill-opacity="1" fill-rule="nonzero"/></g><path fill="#ffffff" d="M 290.390625 196.667969 C 290.839844 197.164062 291.261719 197.679688 291.660156 198.214844 C 292.054688 198.75 292.425781 199.304688 292.769531 199.878906 C 293.109375 200.449219 293.421875 201.039062 293.707031 201.640625 C 293.992188 202.246094 294.246094 202.863281 294.472656 203.488281 C 294.695312 204.117188 294.886719 204.757812 295.050781 205.402344 C 295.210938 206.050781 295.339844 206.703125 295.4375 207.363281 C 295.535156 208.023438 295.597656 208.6875 295.632812 209.355469 C 295.664062 210.019531 295.664062 210.6875 295.628906 211.355469 C 295.59375 212.019531 295.53125 212.683594 295.429688 213.34375 C 295.332031 214.003906 295.203125 214.65625 295.039062 215.304688 C 294.875 215.949219 294.679688 216.589844 294.457031 217.214844 C 294.230469 217.84375 293.976562 218.460938 293.6875 219.0625 C 293.402344 219.664062 293.089844 220.253906 292.746094 220.824219 C 292.402344 221.394531 292.03125 221.949219 291.632812 222.484375 C 291.234375 223.019531 290.8125 223.535156 290.363281 224.027344 C 289.914062 224.523438 289.441406 224.992188 288.945312 225.441406 C 288.453125 225.886719 287.9375 226.3125 287.398438 226.707031 C 286.863281 227.105469 286.308594 227.472656 285.738281 227.816406 C 285.164062 228.160156 284.574219 228.472656 283.972656 228.757812 C 283.367188 229.042969 282.753906 229.296875 282.125 229.519531 C 281.496094 229.742188 280.859375 229.9375 280.210938 230.097656 C 279.5625 230.257812 278.910156 230.390625 278.25 230.484375 C 277.589844 230.582031 276.925781 230.648438 276.261719 230.679688 C 275.59375 230.710938 274.925781 230.710938 274.261719 230.675781 C 273.59375 230.644531 272.929688 230.578125 272.273438 230.480469 C 271.613281 230.378906 270.957031 230.25 270.3125 230.085938 C 269.664062 229.925781 269.027344 229.730469 268.398438 229.503906 C 267.769531 229.277344 267.15625 229.023438 266.554688 228.738281 C 265.949219 228.453125 265.363281 228.136719 264.789062 227.792969 C 264.21875 227.449219 263.664062 227.078125 263.128906 226.679688 C 262.59375 226.28125 262.078125 225.859375 261.585938 225.410156 C 261.09375 224.960938 260.621094 224.492188 260.171875 223.996094 C 259.726562 223.5 259.304688 222.984375 258.90625 222.449219 C 258.511719 221.914062 258.140625 221.359375 257.796875 220.785156 C 257.457031 220.210938 257.140625 219.625 256.859375 219.019531 C 256.574219 218.417969 256.320312 217.800781 256.09375 217.171875 C 255.871094 216.542969 255.679688 215.90625 255.515625 215.257812 C 255.355469 214.613281 255.226562 213.957031 255.128906 213.296875 C 255.03125 212.636719 254.96875 211.976562 254.933594 211.308594 C 254.902344 210.640625 254.902344 209.976562 254.9375 209.308594 C 254.972656 208.644531 255.035156 207.980469 255.136719 207.320312 C 255.234375 206.660156 255.363281 206.007812 255.527344 205.359375 C 255.691406 204.710938 255.882812 204.074219 256.109375 203.449219 C 256.335938 202.820312 256.589844 202.203125 256.878906 201.601562 C 257.164062 201 257.476562 200.410156 257.820312 199.839844 C 258.164062 199.265625 258.535156 198.714844 258.933594 198.179688 C 259.332031 197.644531 259.753906 197.128906 260.203125 196.632812 C 260.652344 196.140625 261.125 195.667969 261.621094 195.222656 C 262.113281 194.773438 262.628906 194.351562 263.164062 193.957031 C 263.703125 193.558594 264.257812 193.1875 264.828125 192.847656 C 265.402344 192.503906 265.988281 192.191406 266.59375 191.90625 C 267.195312 191.621094 267.8125 191.367188 268.441406 191.144531 C 269.070312 190.917969 269.707031 190.726562 270.355469 190.566406 C 271.003906 190.402344 271.65625 190.273438 272.316406 190.175781 C 272.976562 190.082031 273.640625 190.015625 274.304688 189.984375 C 274.972656 189.953125 275.640625 189.953125 276.304688 189.984375 C 276.972656 190.019531 277.632812 190.085938 278.292969 190.183594 C 278.953125 190.28125 279.609375 190.414062 280.253906 190.578125 C 280.902344 190.738281 281.539062 190.933594 282.167969 191.160156 C 282.796875 191.382812 283.410156 191.640625 284.011719 191.925781 C 284.617188 192.210938 285.203125 192.527344 285.777344 192.871094 C 286.347656 193.214844 286.902344 193.585938 287.4375 193.984375 C 287.972656 194.378906 288.488281 194.804688 288.980469 195.253906 C 289.472656 195.703125 289.945312 196.171875 290.390625 196.667969 Z M 290.390625 196.667969 " fill-opacity="1" fill-rule="nonzero"/><path fill="#ffffff" d="M 160.441406 156.613281 C 160.484375 157.734375 160.78125 158.832031 161.300781 159.828125 L 184.757812 204.589844 C 186.113281 207.175781 188.75 208.652344 191.480469 208.652344 C 192.664062 208.652344 193.867188 208.375 194.992188 207.785156 C 198.699219 205.839844 200.128906 201.261719 198.1875 197.550781 L 175.609375 154.46875 C 175.726562 151.257812 176.402344 143.664062 179.992188 137.070312 L 182.003906 137.9375 C 178.726562 143.84375 177.976562 150.765625 177.8125 153.980469 L 200.117188 196.539062 C 200.605469 197.472656 200.921875 198.445312 201.089844 199.429688 C 203.980469 200.042969 206.699219 200.460938 209.257812 200.695312 C 209.289062 199.933594 209.394531 199.164062 209.613281 198.398438 L 220.660156 159.628906 C 221.144531 155.246094 220.957031 148.9375 219.300781 143.898438 L 221.429688 143.410156 C 223.339844 149.394531 223.214844 156.492188 222.804688 160.050781 L 211.710938 198.992188 C 210.5625 203.019531 212.898438 207.214844 216.925781 208.359375 C 217.617188 208.558594 218.316406 208.652344 219.003906 208.652344 C 222.304688 208.652344 225.34375 206.480469 226.292969 203.148438 L 237.542969 163.652344 C 237.636719 163.316406 237.710938 162.972656 237.757812 162.628906 C 238.003906 160.882812 239.265625 150.441406 236.269531 140.011719 C 234.726562 134.625 232.035156 129.25 227.492188 125.070312 C 223.605469 127.898438 218.832031 129.5625 213.699219 129.5625 C 212.820312 129.5625 211.925781 129.511719 211.042969 129.414062 C 202.347656 128.433594 195.289062 122.796875 192.066406 115.273438 L 187.761719 114.300781 C 187.148438 114.078125 186.511719 113.933594 185.863281 113.871094 L 185.648438 113.824219 C 185.625 113.832031 185.601562 113.84375 185.578125 113.855469 C 184.25 113.78125 182.882812 114.050781 181.621094 114.71875 C 174.03125 118.746094 169.148438 124.792969 166.015625 131.050781 C 160.007812 143.042969 160.410156 155.808594 160.441406 156.613281 Z M 160.441406 156.613281 " fill-opacity="1" fill-rule="nonzero"/><path fill="#ffffff" d="M 214.503906 84.765625 C 215.203125 84.792969 215.898438 84.855469 216.589844 84.949219 C 217.28125 85.046875 217.964844 85.175781 218.644531 85.339844 C 219.324219 85.5 219.992188 85.695312 220.652344 85.925781 C 221.3125 86.152344 221.960938 86.414062 222.59375 86.707031 C 223.230469 87 223.847656 87.320312 224.449219 87.671875 C 225.050781 88.027344 225.636719 88.40625 226.199219 88.816406 C 226.765625 89.226562 227.308594 89.664062 227.832031 90.128906 C 228.355469 90.59375 228.851562 91.082031 229.324219 91.59375 C 229.800781 92.105469 230.246094 92.640625 230.667969 93.195312 C 231.089844 93.753906 231.484375 94.328125 231.847656 94.925781 C 232.214844 95.519531 232.550781 96.132812 232.855469 96.757812 C 233.160156 97.386719 233.433594 98.027344 233.675781 98.683594 C 233.917969 99.339844 234.125 100.003906 234.300781 100.679688 C 234.480469 101.355469 234.621094 102.039062 234.730469 102.726562 C 234.839844 103.417969 234.917969 104.109375 234.957031 104.808594 C 235 105.503906 235.007812 106.203125 234.980469 106.898438 C 234.953125 107.597656 234.890625 108.292969 234.796875 108.984375 C 234.699219 109.675781 234.570312 110.359375 234.40625 111.039062 C 234.246094 111.71875 234.050781 112.386719 233.820312 113.046875 C 233.59375 113.707031 233.332031 114.355469 233.039062 114.988281 C 232.75 115.621094 232.425781 116.242188 232.074219 116.84375 C 231.71875 117.445312 231.339844 118.03125 230.929688 118.59375 C 230.519531 119.160156 230.082031 119.703125 229.617188 120.226562 C 229.152344 120.746094 228.664062 121.246094 228.152344 121.71875 C 227.640625 122.195312 227.105469 122.640625 226.550781 123.0625 C 225.992188 123.484375 225.417969 123.878906 224.820312 124.242188 C 224.226562 124.609375 223.613281 124.945312 222.988281 125.25 C 222.359375 125.554688 221.71875 125.828125 221.0625 126.070312 C 220.40625 126.3125 219.742188 126.519531 219.066406 126.695312 C 218.390625 126.871094 217.707031 127.015625 217.019531 127.125 C 216.328125 127.234375 215.636719 127.308594 214.9375 127.351562 C 214.242188 127.394531 213.542969 127.398438 212.847656 127.371094 C 212.148438 127.347656 211.453125 127.285156 210.761719 127.1875 C 210.070312 127.09375 209.386719 126.964844 208.707031 126.800781 C 208.027344 126.640625 207.359375 126.445312 206.699219 126.214844 C 206.039062 125.988281 205.390625 125.726562 204.757812 125.433594 C 204.125 125.140625 203.503906 124.820312 202.902344 124.464844 C 202.300781 124.113281 201.714844 123.730469 201.152344 123.320312 C 200.585938 122.910156 200.042969 122.476562 199.519531 122.011719 C 199 121.546875 198.5 121.058594 198.027344 120.546875 C 197.550781 120.035156 197.105469 119.5 196.683594 118.945312 C 196.261719 118.386719 195.867188 117.8125 195.503906 117.214844 C 195.136719 116.621094 194.804688 116.007812 194.496094 115.382812 C 194.191406 114.753906 193.917969 114.113281 193.675781 113.457031 C 193.4375 112.800781 193.226562 112.136719 193.050781 111.460938 C 192.875 110.785156 192.730469 110.101562 192.621094 109.414062 C 192.511719 108.722656 192.4375 108.03125 192.394531 107.332031 C 192.351562 106.636719 192.347656 105.9375 192.375 105.242188 C 192.402344 104.542969 192.460938 103.847656 192.558594 103.15625 C 192.652344 102.464844 192.78125 101.78125 192.945312 101.101562 C 193.105469 100.421875 193.304688 99.753906 193.53125 99.09375 C 193.761719 98.433594 194.019531 97.785156 194.3125 97.152344 C 194.605469 96.519531 194.925781 95.898438 195.28125 95.296875 C 195.632812 94.695312 196.015625 94.109375 196.425781 93.546875 C 196.835938 92.980469 197.269531 92.4375 197.734375 91.914062 C 198.199219 91.394531 198.6875 90.894531 199.199219 90.421875 C 199.710938 89.945312 200.246094 89.5 200.804688 89.078125 C 201.359375 88.65625 201.933594 88.261719 202.53125 87.898438 C 203.125 87.53125 203.738281 87.195312 204.367188 86.890625 C 204.992188 86.585938 205.636719 86.3125 206.289062 86.070312 C 206.945312 85.828125 207.609375 85.621094 208.285156 85.445312 C 208.960938 85.265625 209.644531 85.125 210.332031 85.015625 C 211.023438 84.90625 211.714844 84.828125 212.414062 84.789062 C 213.109375 84.746094 213.808594 84.738281 214.503906 84.765625 Z M 214.503906 84.765625 " fill-opacity="1" fill-rule="nonzero"/></svg>