<svg xmlns="http://www.w3.org/2000/svg" xmlns:xlink="http://www.w3.org/1999/xlink" width="500" zoomAndPan="magnify" viewBox="0 0 375 374.999991" height="500" preserveAspectRatio="xMidYMid meet" version="1.0"><defs><clipPath id="98311e1559"><path d="M 152 111.433594 L 223 111.433594 L 223 182 L 152 182 Z M 152 111.433594 " clip-rule="nonzero"/></clipPath><clipPath id="42486114d4"><path d="M 134 169 L 241 169 L 241 263.683594 L 134 263.683594 Z M 134 169 " clip-rule="nonzero"/></clipPath><clipPath id="f85bacac51"><path d="M 228 193 L 310.5625 193 L 310.5625 263.683594 L 228 263.683594 Z M 228 193 " clip-rule="nonzero"/></clipPath><clipPath id="08d29f1a85"><path d="M 64.5625 193 L 147 193 L 147 263.683594 L 64.5625 263.683594 Z M 64.5625 193 " clip-rule="nonzero"/></clipPath></defs><rect x="-37.5" width="450" fill="#ffffff" y="-37.499999" height="449.999989" fill-opacity="1"/><rect x="-37.5" width="450" fill="#545454" y="-37.499999" height="449.999989" fill-opacity="1"/><g clip-path="url(#98311e1559)"><path fill="#ffffff" d="M 187.5 123.136719 C 174.570312 123.136719 164.09375 133.613281 164.09375 146.539062 C 164.09375 159.464844 174.570312 169.945312 187.5 169.945312 C 200.425781 169.945312 210.902344 159.464844 210.902344 146.539062 C 210.902344 133.613281 200.425781 123.136719 187.5 123.136719 Z M 152.390625 146.539062 C 152.390625 127.152344 168.109375 111.433594 187.5 111.433594 C 206.886719 111.433594 222.605469 127.152344 222.605469 146.539062 C 222.605469 165.929688 206.886719 181.648438 187.5 181.648438 C 168.109375 181.648438 152.390625 165.929688 152.390625 146.539062 Z M 152.390625 146.539062 " fill-opacity="1" fill-rule="evenodd"/></g><path fill="#ffffff" d="M 269.417969 158.242188 C 259.722656 158.242188 251.863281 166.101562 251.863281 175.796875 C 251.863281 185.492188 259.722656 193.351562 269.417969 193.351562 C 279.109375 193.351562 286.96875 185.492188 286.96875 175.796875 C 286.96875 166.101562 279.109375 158.242188 269.417969 158.242188 Z M 240.160156 175.796875 C 240.160156 159.640625 253.257812 146.539062 269.417969 146.539062 C 285.574219 146.539062 298.671875 159.640625 298.671875 175.796875 C 298.671875 191.953125 285.574219 205.054688 269.417969 205.054688 C 253.257812 205.054688 240.160156 191.953125 240.160156 175.796875 Z M 240.160156 175.796875 " fill-opacity="1" fill-rule="evenodd"/><path fill="#ffffff" d="M 105.582031 158.242188 C 95.886719 158.242188 88.027344 166.101562 88.027344 175.796875 C 88.027344 185.492188 95.886719 193.351562 105.582031 193.351562 C 115.277344 193.351562 123.136719 185.492188 123.136719 175.796875 C 123.136719 166.101562 115.277344 158.242188 105.582031 158.242188 Z M 76.324219 175.796875 C 76.324219 159.640625 89.421875 146.539062 105.582031 146.539062 C 121.738281 146.539062 134.835938 159.640625 134.835938 175.796875 C 134.835938 191.953125 121.738281 205.054688 105.582031 205.054688 C 89.421875 205.054688 76.324219 191.953125 76.324219 175.796875 Z M 76.324219 175.796875 " fill-opacity="1" fill-rule="evenodd"/><g clip-path="url(#42486114d4)"><path fill="#ffffff" d="M 134.835938 210.902344 C 134.835938 188.285156 153.175781 169.945312 175.796875 169.945312 L 199.203125 169.945312 C 221.820312 169.945312 240.160156 188.285156 240.160156 210.902344 L 240.160156 246.011719 C 240.160156 255.707031 232.300781 263.566406 222.605469 263.566406 L 152.390625 263.566406 C 142.695312 263.566406 134.835938 255.707031 134.835938 246.011719 Z M 175.796875 181.648438 C 159.636719 181.648438 146.539062 194.746094 146.539062 210.902344 L 146.539062 246.011719 C 146.539062 249.242188 149.160156 251.863281 152.390625 251.863281 L 222.605469 251.863281 C 225.835938 251.863281 228.457031 249.242188 228.457031 246.011719 L 228.457031 210.902344 C 228.457031 194.746094 215.359375 181.648438 199.203125 181.648438 Z M 175.796875 181.648438 " fill-opacity="1" fill-rule="evenodd"/></g><g clip-path="url(#f85bacac51)"><path fill="#ffffff" d="M 228.457031 234.308594 C 228.457031 211.6875 246.796875 193.351562 269.417969 193.351562 C 292.039062 193.351562 310.375 211.6875 310.375 234.308594 L 310.375 246.011719 C 310.375 255.707031 302.515625 263.566406 292.820312 263.566406 L 246.011719 263.566406 C 236.316406 263.566406 228.457031 255.707031 228.457031 246.011719 Z M 269.417969 205.054688 C 253.257812 205.054688 240.160156 218.152344 240.160156 234.308594 L 240.160156 246.011719 C 240.160156 249.242188 242.78125 251.863281 246.011719 251.863281 L 292.820312 251.863281 C 296.050781 251.863281 298.671875 249.242188 298.671875 246.011719 L 298.671875 234.308594 C 298.671875 218.152344 285.574219 205.054688 269.417969 205.054688 Z M 269.417969 205.054688 " fill-opacity="1" fill-rule="evenodd"/></g><g clip-path="url(#08d29f1a85)"><path fill="#ffffff" d="M 64.621094 234.308594 C 64.621094 211.6875 82.960938 193.351562 105.582031 193.351562 C 128.203125 193.351562 146.539062 211.6875 146.539062 234.308594 L 146.539062 246.011719 C 146.539062 255.707031 138.679688 263.566406 128.984375 263.566406 L 82.175781 263.566406 C 72.480469 263.566406 64.621094 255.707031 64.621094 246.011719 Z M 105.582031 205.054688 C 89.421875 205.054688 76.324219 218.152344 76.324219 234.308594 L 76.324219 246.011719 C 76.324219 249.242188 78.945312 251.863281 82.175781 251.863281 L 128.984375 251.863281 C 132.21875 251.863281 134.835938 249.242188 134.835938 246.011719 L 134.835938 234.308594 C 134.835938 218.152344 121.738281 205.054688 105.582031 205.054688 Z M 105.582031 205.054688 " fill-opacity="1" fill-rule="evenodd"/></g></svg>